# xmcd
#
# Track frame offsets:
#   150
#   9430
#   21350
#   33740
#   42115
#   52110
#   62372
#   72375
#   84960
#   101780
#   110770
#   120732
#   134915
#   148615
#   159985
#
# Disc length: 2340 seconds
#
# Submitted via: SoundJam 2.0
#
# Revision: 0
# Processed by: cddbd v1.4PL0 Copyright (c) Steve Scherf et al.
#
DISCID=d609220f
DTITLE=Various Artist - The Definitive Blugrass Collection, Disc 2 of 2
DYEAR=1900
DGENRE=
TTITLE0=Grandpa Jones - Are You From Dixie
TTITLE1=The Osborne Brothers - Kentucky Waltz
TTITLE2=Buddy Spicher - Uncle Pen
TTITLE3=Benny Martin - Foggy Mountain Breakdown
TTITLE4=Don Reno and Bill Harrell - I'm Using My Bible For A Roadmap
TTITLE5=Jim and Jesse - Gosh, I Miss You All The Time
TTITLE6=Mac Wiseman - Wreck of The Old 97
TTITLE7=Wynn Osborne - Flint Hill Special
TTITLE8=Carl Story - Angel Band
TTITLE9=Pinnacle Boys - Sittin' On Top Of The World
TTITLE10=Lester Flatt and The Nashville Grass - The Ballad of Jed Clampett
TTITLE11=Eddie Adcock - Black Mountain Rag
TTITLE12=The Osborne Brothers - Rank Strangers
TTITLE13=Mac Wiseman - Dark Hollow
TTITLE14=Lester Flatt and The Nashville Grass - Will The Circel Be Unbroken?
EXTD=
EXTT0=
EXTT1=
EXTT2=
EXTT3=
EXTT4=
EXTT5=
EXTT6=
EXTT7=
EXTT8=
EXTT9=
EXTT10=
EXTT11=
EXTT12=
EXTT13=
EXTT14=
PLAYORDER=
